<mxfile host="app.diagrams.net" agent="Mozilla/5.0 (X11; Ubuntu; Linux x86_64; rv:130.0) Gecko/20100101 Firefox/130.0" version="24.7.17">
  <diagram name="Page-1" id="w4mQKroqMLBwdmD5H5JQ">
    <mxGraphModel dx="3337" dy="2536" grid="1" gridSize="10" guides="1" tooltips="1" connect="1" arrows="1" fold="1" page="1" pageScale="1" pageWidth="850" pageHeight="1100" math="0" shadow="0">
      <root>
        <mxCell id="0" />
        <mxCell id="1" parent="0" />
        <mxCell id="uF8mq2zdlkkt3BdRy5Kg-34" style="edgeStyle=orthogonalEdgeStyle;rounded=0;orthogonalLoop=1;jettySize=auto;html=1;exitX=0.75;exitY=0;exitDx=0;exitDy=0;entryX=0.25;entryY=1;entryDx=0;entryDy=0;strokeWidth=2;" parent="1" source="uF8mq2zdlkkt3BdRy5Kg-1" target="uF8mq2zdlkkt3BdRy5Kg-5" edge="1">
          <mxGeometry relative="1" as="geometry" />
        </mxCell>
        <mxCell id="uF8mq2zdlkkt3BdRy5Kg-1" value="" style="rounded=0;whiteSpace=wrap;html=1;rotation=90;fillColor=#fa6800;fontColor=#000000;strokeColor=#C73500;strokeWidth=2;" parent="1" vertex="1">
          <mxGeometry x="180" y="280" width="260" height="120" as="geometry" />
        </mxCell>
        <mxCell id="uF8mq2zdlkkt3BdRy5Kg-2" value="" style="rounded=0;whiteSpace=wrap;html=1;rotation=90;fillColor=#bac8d3;strokeColor=#23445d;strokeWidth=2;" parent="1" vertex="1">
          <mxGeometry x="-202.5" y="297.5" width="665" height="40" as="geometry" />
        </mxCell>
        <mxCell id="uF8mq2zdlkkt3BdRy5Kg-5" value="" style="shape=trapezoid;perimeter=trapezoidPerimeter;whiteSpace=wrap;html=1;fixedSize=1;rotation=90;fillColor=#647687;fontColor=#ffffff;strokeColor=#314354;strokeWidth=2;" parent="1" vertex="1">
          <mxGeometry x="450" y="375" width="100" height="40" as="geometry" />
        </mxCell>
        <mxCell id="uF8mq2zdlkkt3BdRy5Kg-6" value="" style="rounded=0;whiteSpace=wrap;html=1;rotation=90;fillColor=#bac8d3;strokeColor=#23445d;strokeWidth=2;" parent="1" vertex="1">
          <mxGeometry x="266.25" y="296.25" width="667.5" height="40" as="geometry" />
        </mxCell>
        <mxCell id="uF8mq2zdlkkt3BdRy5Kg-7" value="" style="rounded=0;whiteSpace=wrap;html=1;rotation=90;fillColor=#bac8d3;strokeColor=#23445d;strokeWidth=2;" parent="1" vertex="1">
          <mxGeometry x="581.25" y="301.25" width="657.5" height="40" as="geometry" />
        </mxCell>
        <mxCell id="uF8mq2zdlkkt3BdRy5Kg-8" value="" style="rounded=0;whiteSpace=wrap;html=1;rotation=90;fillColor=#bac8d3;strokeColor=#23445d;strokeWidth=2;" parent="1" vertex="1">
          <mxGeometry x="1005" y="304.99" width="650" height="40" as="geometry" />
        </mxCell>
        <mxCell id="uF8mq2zdlkkt3BdRy5Kg-73" style="edgeStyle=orthogonalEdgeStyle;rounded=0;orthogonalLoop=1;jettySize=auto;html=1;exitX=0;exitY=0.5;exitDx=0;exitDy=0;entryX=0;entryY=0.25;entryDx=0;entryDy=0;entryPerimeter=0;strokeWidth=2;fillColor=#e51400;strokeColor=#B20000;" parent="1" source="uF8mq2zdlkkt3BdRy5Kg-18" target="uF8mq2zdlkkt3BdRy5Kg-74" edge="1">
          <mxGeometry relative="1" as="geometry">
            <mxPoint x="410" y="-291" as="targetPoint" />
            <Array as="points">
              <mxPoint x="785" y="455" />
              <mxPoint x="830" y="455" />
              <mxPoint x="830" y="-280" />
            </Array>
          </mxGeometry>
        </mxCell>
        <mxCell id="uF8mq2zdlkkt3BdRy5Kg-96" value="zero_EX" style="edgeLabel;html=1;align=center;verticalAlign=middle;resizable=0;points=[];" parent="uF8mq2zdlkkt3BdRy5Kg-73" vertex="1" connectable="0">
          <mxGeometry x="0.6282" y="1" relative="1" as="geometry">
            <mxPoint as="offset" />
          </mxGeometry>
        </mxCell>
        <mxCell id="uF8mq2zdlkkt3BdRy5Kg-18" value="" style="shape=image;verticalLabelPosition=bottom;labelBackgroundColor=default;verticalAlign=top;aspect=fixed;imageAspect=0;image=https://circuitfever.com/assets/img/verilog/eg8/alu.png;clipPath=inset(28.67% 20.33% 30% 27%);rotation=-90;strokeWidth=2;" parent="1" vertex="1">
          <mxGeometry x="700" y="316.64" width="170" height="66.71" as="geometry" />
        </mxCell>
        <mxCell id="uF8mq2zdlkkt3BdRy5Kg-54" style="edgeStyle=orthogonalEdgeStyle;rounded=0;orthogonalLoop=1;jettySize=auto;html=1;exitX=1;exitY=0.5;exitDx=0;exitDy=0;entryX=0.25;entryY=1;entryDx=0;entryDy=0;strokeWidth=2;" parent="1" source="uF8mq2zdlkkt3BdRy5Kg-19" target="uF8mq2zdlkkt3BdRy5Kg-21" edge="1">
          <mxGeometry relative="1" as="geometry" />
        </mxCell>
        <mxCell id="uF8mq2zdlkkt3BdRy5Kg-19" value="Data Mem." style="rounded=0;whiteSpace=wrap;html=1;fillColor=#6a00ff;fontColor=#ffffff;strokeColor=#3700CC;strokeWidth=2;" parent="1" vertex="1">
          <mxGeometry x="970" y="260" width="160" height="160" as="geometry" />
        </mxCell>
        <mxCell id="uF8mq2zdlkkt3BdRy5Kg-20" value="" style="shape=trapezoid;perimeter=trapezoidPerimeter;whiteSpace=wrap;html=1;fixedSize=1;rotation=90;fillColor=#647687;fontColor=#ffffff;strokeColor=#314354;strokeWidth=2;" parent="1" vertex="1">
          <mxGeometry x="735" y="580" width="100" height="40" as="geometry" />
        </mxCell>
        <mxCell id="uF8mq2zdlkkt3BdRy5Kg-60" style="edgeStyle=orthogonalEdgeStyle;rounded=0;orthogonalLoop=1;jettySize=auto;html=1;exitX=0.5;exitY=0;exitDx=0;exitDy=0;entryX=0.54;entryY=0.902;entryDx=0;entryDy=0;strokeWidth=2;entryPerimeter=0;" parent="1" source="uF8mq2zdlkkt3BdRy5Kg-21" target="uF8mq2zdlkkt3BdRy5Kg-8" edge="1">
          <mxGeometry relative="1" as="geometry" />
        </mxCell>
        <mxCell id="uF8mq2zdlkkt3BdRy5Kg-21" value="" style="shape=trapezoid;perimeter=trapezoidPerimeter;whiteSpace=wrap;html=1;fixedSize=1;rotation=90;fillColor=#647687;fontColor=#ffffff;strokeColor=#314354;strokeWidth=2;" parent="1" vertex="1">
          <mxGeometry x="1210" y="332.5" width="100" height="40" as="geometry" />
        </mxCell>
        <mxCell id="uF8mq2zdlkkt3BdRy5Kg-24" value="Inst. Mem" style="rounded=0;whiteSpace=wrap;html=1;fillColor=#6a00ff;fontColor=#ffffff;strokeColor=#3700CC;strokeWidth=2;" parent="1" vertex="1">
          <mxGeometry x="-130" y="280" width="160" height="160" as="geometry" />
        </mxCell>
        <mxCell id="uF8mq2zdlkkt3BdRy5Kg-36" style="edgeStyle=orthogonalEdgeStyle;rounded=0;orthogonalLoop=1;jettySize=auto;html=1;exitX=1;exitY=0.5;exitDx=0;exitDy=0;strokeWidth=2;" parent="1" source="uF8mq2zdlkkt3BdRy5Kg-25" target="uF8mq2zdlkkt3BdRy5Kg-24" edge="1">
          <mxGeometry relative="1" as="geometry" />
        </mxCell>
        <mxCell id="uF8mq2zdlkkt3BdRy5Kg-26" value="Regfile" style="text;html=1;align=center;verticalAlign=middle;whiteSpace=wrap;rounded=0;strokeWidth=2;" parent="1" vertex="1">
          <mxGeometry x="280" y="325" width="60" height="30" as="geometry" />
        </mxCell>
        <mxCell id="uF8mq2zdlkkt3BdRy5Kg-33" style="edgeStyle=orthogonalEdgeStyle;rounded=0;orthogonalLoop=1;jettySize=auto;html=1;exitX=1;exitY=0.5;exitDx=0;exitDy=0;entryX=0.75;entryY=1;entryDx=0;entryDy=0;strokeWidth=2;" parent="1" source="uF8mq2zdlkkt3BdRy5Kg-27" target="uF8mq2zdlkkt3BdRy5Kg-5" edge="1">
          <mxGeometry relative="1" as="geometry" />
        </mxCell>
        <mxCell id="uF8mq2zdlkkt3BdRy5Kg-27" value="Imm. Ext." style="whiteSpace=wrap;html=1;fillColor=#76608a;fontColor=#ffffff;strokeColor=#432D57;strokeWidth=2;" parent="1" vertex="1">
          <mxGeometry x="260" y="510" width="150" height="40" as="geometry" />
        </mxCell>
        <mxCell id="uF8mq2zdlkkt3BdRy5Kg-30" style="edgeStyle=orthogonalEdgeStyle;rounded=0;orthogonalLoop=1;jettySize=auto;html=1;exitX=0.25;exitY=0;exitDx=0;exitDy=0;entryX=0.473;entryY=-0.025;entryDx=0;entryDy=0;entryPerimeter=0;startArrow=classic;startFill=1;endArrow=none;endFill=0;strokeWidth=2;" parent="1" source="uF8mq2zdlkkt3BdRy5Kg-18" target="uF8mq2zdlkkt3BdRy5Kg-6" edge="1">
          <mxGeometry relative="1" as="geometry" />
        </mxCell>
        <mxCell id="uF8mq2zdlkkt3BdRy5Kg-31" style="edgeStyle=orthogonalEdgeStyle;rounded=0;orthogonalLoop=1;jettySize=auto;html=1;exitX=0.75;exitY=0;exitDx=0;exitDy=0;entryX=0.3;entryY=0.025;entryDx=0;entryDy=0;entryPerimeter=0;startArrow=classic;startFill=1;endArrow=none;endFill=0;strokeWidth=2;" parent="1" source="uF8mq2zdlkkt3BdRy5Kg-18" target="uF8mq2zdlkkt3BdRy5Kg-6" edge="1">
          <mxGeometry relative="1" as="geometry" />
        </mxCell>
        <mxCell id="uF8mq2zdlkkt3BdRy5Kg-32" style="edgeStyle=orthogonalEdgeStyle;rounded=0;orthogonalLoop=1;jettySize=auto;html=1;exitX=0.5;exitY=0;exitDx=0;exitDy=0;entryX=0.48;entryY=0.9;entryDx=0;entryDy=0;entryPerimeter=0;strokeWidth=2;" parent="1" source="uF8mq2zdlkkt3BdRy5Kg-5" target="uF8mq2zdlkkt3BdRy5Kg-6" edge="1">
          <mxGeometry relative="1" as="geometry" />
        </mxCell>
        <mxCell id="uF8mq2zdlkkt3BdRy5Kg-35" value="" style="endArrow=classic;html=1;rounded=0;entryX=0.728;entryY=0.925;entryDx=0;entryDy=0;entryPerimeter=0;strokeWidth=2;" parent="1" target="uF8mq2zdlkkt3BdRy5Kg-6" edge="1">
          <mxGeometry width="50" height="50" relative="1" as="geometry">
            <mxPoint x="420" y="405" as="sourcePoint" />
            <mxPoint x="410" y="450" as="targetPoint" />
            <Array as="points">
              <mxPoint x="420" y="468" />
            </Array>
          </mxGeometry>
        </mxCell>
        <mxCell id="uF8mq2zdlkkt3BdRy5Kg-37" style="edgeStyle=orthogonalEdgeStyle;rounded=0;orthogonalLoop=1;jettySize=auto;html=1;exitX=1;exitY=0.5;exitDx=0;exitDy=0;entryX=0.564;entryY=1;entryDx=0;entryDy=0;strokeWidth=2;entryPerimeter=0;" parent="1" source="uF8mq2zdlkkt3BdRy5Kg-24" target="uF8mq2zdlkkt3BdRy5Kg-2" edge="1">
          <mxGeometry relative="1" as="geometry" />
        </mxCell>
        <mxCell id="uF8mq2zdlkkt3BdRy5Kg-38" style="edgeStyle=orthogonalEdgeStyle;rounded=0;orthogonalLoop=1;jettySize=auto;html=1;exitX=0.5;exitY=0;exitDx=0;exitDy=0;strokeWidth=2;" parent="1" source="uF8mq2zdlkkt3BdRy5Kg-20" edge="1">
          <mxGeometry relative="1" as="geometry">
            <mxPoint x="889" y="600" as="targetPoint" />
          </mxGeometry>
        </mxCell>
        <mxCell id="uF8mq2zdlkkt3BdRy5Kg-39" value="" style="endArrow=classic;html=1;rounded=0;entryX=0.208;entryY=1.025;entryDx=0;entryDy=0;entryPerimeter=0;strokeWidth=2;" parent="1" target="uF8mq2zdlkkt3BdRy5Kg-1" edge="1">
          <mxGeometry width="50" height="50" relative="1" as="geometry">
            <mxPoint x="170" y="360" as="sourcePoint" />
            <mxPoint x="200" y="316.64" as="targetPoint" />
            <Array as="points">
              <mxPoint x="170" y="264" />
            </Array>
          </mxGeometry>
        </mxCell>
        <mxCell id="uF8mq2zdlkkt3BdRy5Kg-40" value="" style="endArrow=none;html=1;rounded=0;exitX=0.562;exitY=0.025;exitDx=0;exitDy=0;strokeWidth=2;exitPerimeter=0;" parent="1" source="uF8mq2zdlkkt3BdRy5Kg-2" edge="1">
          <mxGeometry width="50" height="50" relative="1" as="geometry">
            <mxPoint x="360" y="500" as="sourcePoint" />
            <mxPoint x="170" y="360" as="targetPoint" />
          </mxGeometry>
        </mxCell>
        <mxCell id="uF8mq2zdlkkt3BdRy5Kg-41" value="" style="endArrow=classic;html=1;rounded=0;entryX=0.75;entryY=1;entryDx=0;entryDy=0;strokeWidth=2;" parent="1" target="uF8mq2zdlkkt3BdRy5Kg-1" edge="1">
          <mxGeometry width="50" height="50" relative="1" as="geometry">
            <mxPoint x="170" y="360" as="sourcePoint" />
            <mxPoint x="410" y="450" as="targetPoint" />
            <Array as="points">
              <mxPoint x="170" y="405" />
            </Array>
          </mxGeometry>
        </mxCell>
        <mxCell id="uF8mq2zdlkkt3BdRy5Kg-42" value="" style="endArrow=classic;html=1;rounded=0;entryX=0.898;entryY=1.05;entryDx=0;entryDy=0;entryPerimeter=0;strokeWidth=2;" parent="1" target="uF8mq2zdlkkt3BdRy5Kg-6" edge="1">
          <mxGeometry width="50" height="50" relative="1" as="geometry">
            <mxPoint x="170" y="405" as="sourcePoint" />
            <mxPoint x="410" y="450" as="targetPoint" />
            <Array as="points">
              <mxPoint x="170" y="600" />
            </Array>
          </mxGeometry>
        </mxCell>
        <mxCell id="uF8mq2zdlkkt3BdRy5Kg-43" value="" style="endArrow=classic;html=1;rounded=0;entryX=0.949;entryY=1.075;entryDx=0;entryDy=0;entryPerimeter=0;strokeWidth=2;" parent="1" target="uF8mq2zdlkkt3BdRy5Kg-6" edge="1">
          <mxGeometry width="50" height="50" relative="1" as="geometry">
            <mxPoint x="170" y="600" as="sourcePoint" />
            <mxPoint x="410" y="450" as="targetPoint" />
            <Array as="points">
              <mxPoint x="170" y="625" />
            </Array>
          </mxGeometry>
        </mxCell>
        <mxCell id="uF8mq2zdlkkt3BdRy5Kg-44" value="" style="endArrow=classic;html=1;rounded=0;entryX=0.25;entryY=1;entryDx=0;entryDy=0;strokeWidth=2;" parent="1" target="uF8mq2zdlkkt3BdRy5Kg-20" edge="1">
          <mxGeometry width="50" height="50" relative="1" as="geometry">
            <mxPoint x="620" y="575" as="sourcePoint" />
            <mxPoint x="410" y="450" as="targetPoint" />
            <Array as="points" />
          </mxGeometry>
        </mxCell>
        <mxCell id="uF8mq2zdlkkt3BdRy5Kg-45" value="" style="endArrow=classic;html=1;rounded=0;entryX=0.75;entryY=1;entryDx=0;entryDy=0;exitX=0.958;exitY=-0.12;exitDx=0;exitDy=0;exitPerimeter=0;strokeWidth=2;" parent="1" source="uF8mq2zdlkkt3BdRy5Kg-6" target="uF8mq2zdlkkt3BdRy5Kg-20" edge="1">
          <mxGeometry width="50" height="50" relative="1" as="geometry">
            <mxPoint x="360" y="500" as="sourcePoint" />
            <mxPoint x="410" y="450" as="targetPoint" />
          </mxGeometry>
        </mxCell>
        <mxCell id="uF8mq2zdlkkt3BdRy5Kg-47" value="Controller" style="rounded=0;whiteSpace=wrap;html=1;fillColor=#e51400;fontColor=#ffffff;strokeColor=#B20000;strokeWidth=2;" parent="1" vertex="1">
          <mxGeometry x="250" y="80" width="120" height="60" as="geometry" />
        </mxCell>
        <mxCell id="uF8mq2zdlkkt3BdRy5Kg-48" value="" style="endArrow=classic;html=1;rounded=0;entryX=0;entryY=0.5;entryDx=0;entryDy=0;strokeWidth=2;" parent="1" target="uF8mq2zdlkkt3BdRy5Kg-47" edge="1">
          <mxGeometry width="50" height="50" relative="1" as="geometry">
            <mxPoint x="170" y="260" as="sourcePoint" />
            <mxPoint x="240" y="110" as="targetPoint" />
            <Array as="points">
              <mxPoint x="170" y="110" />
            </Array>
          </mxGeometry>
        </mxCell>
        <mxCell id="uF8mq2zdlkkt3BdRy5Kg-49" value="" style="endArrow=classic;html=1;rounded=0;exitX=1;exitY=0.5;exitDx=0;exitDy=0;fillColor=#e51400;strokeColor=#B20000;strokeWidth=2;" parent="1" source="uF8mq2zdlkkt3BdRy5Kg-47" edge="1">
          <mxGeometry width="50" height="50" relative="1" as="geometry">
            <mxPoint x="360" y="260" as="sourcePoint" />
            <mxPoint x="580" y="110" as="targetPoint" />
          </mxGeometry>
        </mxCell>
        <mxCell id="uF8mq2zdlkkt3BdRy5Kg-50" value="" style="group;fillColor=#d80073;fontColor=#ffffff;strokeColor=#A50040;strokeWidth=2;" parent="1" vertex="1" connectable="0">
          <mxGeometry x="-270" y="300" width="60" height="120" as="geometry" />
        </mxCell>
        <mxCell id="uF8mq2zdlkkt3BdRy5Kg-23" value="" style="rounded=0;whiteSpace=wrap;html=1;rotation=90;fillColor=#d80073;fontColor=#ffffff;strokeColor=#A50040;strokeWidth=2;" parent="uF8mq2zdlkkt3BdRy5Kg-50" vertex="1">
          <mxGeometry x="-30" y="30" width="120" height="60" as="geometry" />
        </mxCell>
        <mxCell id="uF8mq2zdlkkt3BdRy5Kg-25" value="PC" style="text;html=1;align=center;verticalAlign=middle;whiteSpace=wrap;rounded=0;strokeWidth=2;" parent="uF8mq2zdlkkt3BdRy5Kg-50" vertex="1">
          <mxGeometry y="45" width="60" height="30" as="geometry" />
        </mxCell>
        <mxCell id="uF8mq2zdlkkt3BdRy5Kg-51" value="" style="endArrow=classic;html=1;rounded=0;exitX=0.193;exitY=-0.075;exitDx=0;exitDy=0;exitPerimeter=0;entryX=0.794;entryY=0.5;entryDx=0;entryDy=0;fillColor=#e51400;strokeColor=#B20000;entryPerimeter=0;strokeWidth=2;" parent="1" source="uF8mq2zdlkkt3BdRy5Kg-6" target="uF8mq2zdlkkt3BdRy5Kg-18" edge="1">
          <mxGeometry width="50" height="50" relative="1" as="geometry">
            <mxPoint x="730" y="260" as="sourcePoint" />
            <mxPoint x="780" y="210" as="targetPoint" />
            <Array as="points">
              <mxPoint x="785" y="110" />
            </Array>
          </mxGeometry>
        </mxCell>
        <mxCell id="uF8mq2zdlkkt3BdRy5Kg-52" value="" style="endArrow=classic;html=1;rounded=0;entryX=0;entryY=0.5;entryDx=0;entryDy=0;fillColor=#e51400;strokeColor=#B20000;strokeWidth=2;" parent="1" target="uF8mq2zdlkkt3BdRy5Kg-20" edge="1">
          <mxGeometry width="50" height="50" relative="1" as="geometry">
            <mxPoint x="623" y="110" as="sourcePoint" />
            <mxPoint x="780" y="300" as="targetPoint" />
            <Array as="points">
              <mxPoint x="860" y="113" />
              <mxPoint x="860" y="490" />
            </Array>
          </mxGeometry>
        </mxCell>
        <mxCell id="uF8mq2zdlkkt3BdRy5Kg-53" value="" style="endArrow=classic;html=1;rounded=0;exitX=0.723;exitY=-0.1;exitDx=0;exitDy=0;exitPerimeter=0;entryX=0.718;entryY=0.95;entryDx=0;entryDy=0;entryPerimeter=0;strokeWidth=2;" parent="1" source="uF8mq2zdlkkt3BdRy5Kg-6" target="uF8mq2zdlkkt3BdRy5Kg-7" edge="1">
          <mxGeometry width="50" height="50" relative="1" as="geometry">
            <mxPoint x="730" y="350" as="sourcePoint" />
            <mxPoint x="780" y="300" as="targetPoint" />
          </mxGeometry>
        </mxCell>
        <mxCell id="uF8mq2zdlkkt3BdRy5Kg-55" value="" style="endArrow=classic;html=1;rounded=0;entryX=0;entryY=0.25;entryDx=0;entryDy=0;strokeWidth=2;" parent="1" target="uF8mq2zdlkkt3BdRy5Kg-19" edge="1">
          <mxGeometry width="50" height="50" relative="1" as="geometry">
            <mxPoint x="933" y="300" as="sourcePoint" />
            <mxPoint x="780" y="300" as="targetPoint" />
          </mxGeometry>
        </mxCell>
        <mxCell id="uF8mq2zdlkkt3BdRy5Kg-56" value="" style="endArrow=classic;html=1;rounded=0;entryX=0.5;entryY=1;entryDx=0;entryDy=0;exitX=0.713;exitY=0.05;exitDx=0;exitDy=0;exitPerimeter=0;strokeWidth=2;" parent="1" source="uF8mq2zdlkkt3BdRy5Kg-7" target="uF8mq2zdlkkt3BdRy5Kg-19" edge="1">
          <mxGeometry width="50" height="50" relative="1" as="geometry">
            <mxPoint x="930" y="490" as="sourcePoint" />
            <mxPoint x="980" y="440" as="targetPoint" />
            <Array as="points">
              <mxPoint x="1050" y="461" />
            </Array>
          </mxGeometry>
        </mxCell>
        <mxCell id="uF8mq2zdlkkt3BdRy5Kg-57" value="" style="endArrow=classic;html=1;rounded=0;entryX=0.182;entryY=0.925;entryDx=0;entryDy=0;entryPerimeter=0;fillColor=#e51400;strokeColor=#B20000;strokeWidth=2;" parent="1" target="uF8mq2zdlkkt3BdRy5Kg-7" edge="1">
          <mxGeometry width="50" height="50" relative="1" as="geometry">
            <mxPoint x="620" y="110" as="sourcePoint" />
            <mxPoint x="670" y="60" as="targetPoint" />
          </mxGeometry>
        </mxCell>
        <mxCell id="uF8mq2zdlkkt3BdRy5Kg-58" value="" style="endArrow=classic;html=1;rounded=0;entryX=0.456;entryY=-0.012;entryDx=0;entryDy=0;entryPerimeter=0;fillColor=#e51400;strokeColor=#B20000;strokeWidth=2;" parent="1" target="uF8mq2zdlkkt3BdRy5Kg-19" edge="1">
          <mxGeometry width="50" height="50" relative="1" as="geometry">
            <mxPoint x="933" y="110" as="sourcePoint" />
            <mxPoint x="1130" y="150" as="targetPoint" />
            <Array as="points">
              <mxPoint x="1043" y="110" />
            </Array>
          </mxGeometry>
        </mxCell>
        <mxCell id="uF8mq2zdlkkt3BdRy5Kg-59" value="" style="endArrow=classic;html=1;rounded=0;strokeWidth=2;" parent="1" edge="1">
          <mxGeometry width="50" height="50" relative="1" as="geometry">
            <mxPoint x="940" y="300" as="sourcePoint" />
            <mxPoint x="1240" y="365" as="targetPoint" />
            <Array as="points">
              <mxPoint x="940" y="450" />
              <mxPoint x="1180" y="450" />
              <mxPoint x="1180" y="365" />
            </Array>
          </mxGeometry>
        </mxCell>
        <mxCell id="uF8mq2zdlkkt3BdRy5Kg-61" value="" style="endArrow=classic;html=1;rounded=0;entryX=0;entryY=0.5;entryDx=0;entryDy=0;fillColor=#e51400;strokeColor=#B20000;strokeWidth=2;" parent="1" target="uF8mq2zdlkkt3BdRy5Kg-21" edge="1">
          <mxGeometry width="50" height="50" relative="1" as="geometry">
            <mxPoint x="930" y="110" as="sourcePoint" />
            <mxPoint x="980" y="60" as="targetPoint" />
            <Array as="points">
              <mxPoint x="1260" y="110" />
            </Array>
          </mxGeometry>
        </mxCell>
        <mxCell id="uF8mq2zdlkkt3BdRy5Kg-62" value="" style="endArrow=classic;html=1;rounded=0;entryX=0;entryY=0.5;entryDx=0;entryDy=0;strokeWidth=2;" parent="1" target="uF8mq2zdlkkt3BdRy5Kg-27" edge="1">
          <mxGeometry width="50" height="50" relative="1" as="geometry">
            <mxPoint x="170" y="530" as="sourcePoint" />
            <mxPoint x="610" y="300" as="targetPoint" />
          </mxGeometry>
        </mxCell>
        <mxCell id="uF8mq2zdlkkt3BdRy5Kg-64" style="edgeStyle=orthogonalEdgeStyle;rounded=0;orthogonalLoop=1;jettySize=auto;html=1;exitX=0.25;exitY=0;exitDx=0;exitDy=0;entryX=0.371;entryY=0.9;entryDx=0;entryDy=0;entryPerimeter=0;strokeWidth=2;" parent="1" source="uF8mq2zdlkkt3BdRy5Kg-1" target="uF8mq2zdlkkt3BdRy5Kg-6" edge="1">
          <mxGeometry relative="1" as="geometry" />
        </mxCell>
        <mxCell id="uF8mq2zdlkkt3BdRy5Kg-66" style="edgeStyle=orthogonalEdgeStyle;rounded=0;orthogonalLoop=1;jettySize=auto;html=1;exitX=0.5;exitY=0;exitDx=0;exitDy=0;entryX=0;entryY=0.5;entryDx=0;entryDy=0;strokeWidth=2;" parent="1" source="uF8mq2zdlkkt3BdRy5Kg-65" target="uF8mq2zdlkkt3BdRy5Kg-25" edge="1">
          <mxGeometry relative="1" as="geometry" />
        </mxCell>
        <mxCell id="uF8mq2zdlkkt3BdRy5Kg-65" value="" style="shape=trapezoid;perimeter=trapezoidPerimeter;whiteSpace=wrap;html=1;fixedSize=1;rotation=-90;fillColor=#647687;fontColor=#ffffff;strokeColor=#314354;strokeWidth=2;" parent="1" vertex="1">
          <mxGeometry x="-160" y="-200" width="120" height="40" as="geometry" />
        </mxCell>
        <mxCell id="uF8mq2zdlkkt3BdRy5Kg-67" value="" style="shape=trapezoid;perimeter=trapezoidPerimeter;whiteSpace=wrap;html=1;fixedSize=1;rotation=-90;fillColor=#647687;fontColor=#ffffff;strokeColor=#314354;strokeWidth=2;" parent="1" vertex="1">
          <mxGeometry x="-90" y="-110" width="170" height="40" as="geometry" />
        </mxCell>
        <mxCell id="uF8mq2zdlkkt3BdRy5Kg-68" style="edgeStyle=orthogonalEdgeStyle;rounded=0;orthogonalLoop=1;jettySize=auto;html=1;exitX=0.5;exitY=0;exitDx=0;exitDy=0;entryX=0.317;entryY=1.075;entryDx=0;entryDy=0;entryPerimeter=0;strokeWidth=2;" parent="1" source="uF8mq2zdlkkt3BdRy5Kg-67" target="uF8mq2zdlkkt3BdRy5Kg-65" edge="1">
          <mxGeometry relative="1" as="geometry" />
        </mxCell>
        <mxCell id="uF8mq2zdlkkt3BdRy5Kg-69" value="" style="endArrow=classic;html=1;rounded=0;entryX=0.034;entryY=0.925;entryDx=0;entryDy=0;entryPerimeter=0;strokeWidth=2;" parent="1" target="uF8mq2zdlkkt3BdRy5Kg-2" edge="1">
          <mxGeometry width="50" height="50" relative="1" as="geometry">
            <mxPoint x="-150" y="360" as="sourcePoint" />
            <mxPoint x="-150" y="210" as="targetPoint" />
            <Array as="points">
              <mxPoint x="-150" y="8" />
            </Array>
          </mxGeometry>
        </mxCell>
        <mxCell id="uF8mq2zdlkkt3BdRy5Kg-70" value="" style="endArrow=classic;html=1;rounded=0;entryX=0.25;entryY=0;entryDx=0;entryDy=0;strokeWidth=2;" parent="1" target="uF8mq2zdlkkt3BdRy5Kg-76" edge="1">
          <mxGeometry width="50" height="50" relative="1" as="geometry">
            <mxPoint x="150" y="10" as="sourcePoint" />
            <mxPoint x="200" y="-40" as="targetPoint" />
            <Array as="points">
              <mxPoint x="370" y="10" />
              <mxPoint x="370" y="-230" />
            </Array>
          </mxGeometry>
        </mxCell>
        <mxCell id="uF8mq2zdlkkt3BdRy5Kg-71" value="" style="endArrow=classic;html=1;rounded=0;strokeWidth=2;" parent="1" edge="1">
          <mxGeometry width="50" height="50" relative="1" as="geometry">
            <mxPoint x="440" y="530" as="sourcePoint" />
            <mxPoint x="579" y="530" as="targetPoint" />
          </mxGeometry>
        </mxCell>
        <mxCell id="uF8mq2zdlkkt3BdRy5Kg-72" value="" style="endArrow=classic;html=1;rounded=0;entryX=0.75;entryY=0;entryDx=0;entryDy=0;strokeWidth=2;" parent="1" target="uF8mq2zdlkkt3BdRy5Kg-76" edge="1">
          <mxGeometry width="50" height="50" relative="1" as="geometry">
            <mxPoint x="620" y="530" as="sourcePoint" />
            <mxPoint x="680" y="-60" as="targetPoint" />
            <Array as="points">
              <mxPoint x="680" y="530" />
              <mxPoint x="680" y="-182" />
            </Array>
          </mxGeometry>
        </mxCell>
        <mxCell id="uF8mq2zdlkkt3BdRy5Kg-78" style="edgeStyle=orthogonalEdgeStyle;rounded=0;orthogonalLoop=1;jettySize=auto;html=1;exitX=1;exitY=0.5;exitDx=0;exitDy=0;exitPerimeter=0;entryX=1;entryY=0.5;entryDx=0;entryDy=0;strokeWidth=2;" parent="1" source="uF8mq2zdlkkt3BdRy5Kg-74" target="uF8mq2zdlkkt3BdRy5Kg-65" edge="1">
          <mxGeometry relative="1" as="geometry" />
        </mxCell>
        <mxCell id="uF8mq2zdlkkt3BdRy5Kg-74" value="" style="shape=or;whiteSpace=wrap;html=1;rotation=-180;strokeWidth=2;" parent="1" vertex="1">
          <mxGeometry x="365" y="-340" width="60" height="80" as="geometry" />
        </mxCell>
        <mxCell id="uF8mq2zdlkkt3BdRy5Kg-75" value="" style="endArrow=classic;html=1;rounded=0;entryX=0;entryY=0.75;entryDx=0;entryDy=0;entryPerimeter=0;fillColor=#e51400;strokeColor=#B20000;strokeWidth=2;" parent="1" target="uF8mq2zdlkkt3BdRy5Kg-74" edge="1">
          <mxGeometry width="50" height="50" relative="1" as="geometry">
            <mxPoint x="800" y="110" as="sourcePoint" />
            <mxPoint x="850" y="60" as="targetPoint" />
            <Array as="points">
              <mxPoint x="800" y="-320" />
            </Array>
          </mxGeometry>
        </mxCell>
        <mxCell id="uF8mq2zdlkkt3BdRy5Kg-95" value="Branch_EX" style="edgeLabel;html=1;align=center;verticalAlign=middle;resizable=0;points=[];" parent="uF8mq2zdlkkt3BdRy5Kg-75" vertex="1" connectable="0">
          <mxGeometry x="0.5528" y="-1" relative="1" as="geometry">
            <mxPoint as="offset" />
          </mxGeometry>
        </mxCell>
        <mxCell id="uF8mq2zdlkkt3BdRy5Kg-76" value="+" style="rounded=0;whiteSpace=wrap;html=1;rotation=90;strokeWidth=2;" parent="1" vertex="1">
          <mxGeometry x="190" y="-230" width="90" height="50" as="geometry" />
        </mxCell>
        <mxCell id="uF8mq2zdlkkt3BdRy5Kg-77" style="edgeStyle=orthogonalEdgeStyle;rounded=0;orthogonalLoop=1;jettySize=auto;html=1;exitX=0.5;exitY=1;exitDx=0;exitDy=0;entryX=0.692;entryY=1.025;entryDx=0;entryDy=0;entryPerimeter=0;strokeWidth=2;" parent="1" source="uF8mq2zdlkkt3BdRy5Kg-76" target="uF8mq2zdlkkt3BdRy5Kg-65" edge="1">
          <mxGeometry relative="1" as="geometry" />
        </mxCell>
        <mxCell id="uF8mq2zdlkkt3BdRy5Kg-79" value="" style="endArrow=classic;html=1;rounded=0;entryX=0;entryY=0.25;entryDx=0;entryDy=0;fillColor=#e51400;strokeColor=#B20000;strokeWidth=2;" parent="1" target="uF8mq2zdlkkt3BdRy5Kg-67" edge="1">
          <mxGeometry width="50" height="50" relative="1" as="geometry">
            <mxPoint x="460" y="110" as="sourcePoint" />
            <mxPoint x="510" y="60" as="targetPoint" />
            <Array as="points">
              <mxPoint x="460" y="50" />
              <mxPoint x="-13" y="50" />
            </Array>
          </mxGeometry>
        </mxCell>
        <mxCell id="uF8mq2zdlkkt3BdRy5Kg-102" value="PCSrc_ID" style="edgeLabel;html=1;align=center;verticalAlign=middle;resizable=0;points=[];" parent="uF8mq2zdlkkt3BdRy5Kg-79" vertex="1" connectable="0">
          <mxGeometry x="-0.1443" y="-1" relative="1" as="geometry">
            <mxPoint as="offset" />
          </mxGeometry>
        </mxCell>
        <mxCell id="uF8mq2zdlkkt3BdRy5Kg-80" value="" style="endArrow=classic;html=1;rounded=0;entryX=1;entryY=0.5;entryDx=0;entryDy=0;strokeWidth=2;" parent="1" target="uF8mq2zdlkkt3BdRy5Kg-82" edge="1">
          <mxGeometry width="50" height="50" relative="1" as="geometry">
            <mxPoint x="100" y="10" as="sourcePoint" />
            <mxPoint x="120" y="-40" as="targetPoint" />
            <Array as="points">
              <mxPoint x="100" y="-45" />
            </Array>
          </mxGeometry>
        </mxCell>
        <mxCell id="uF8mq2zdlkkt3BdRy5Kg-84" style="edgeStyle=orthogonalEdgeStyle;rounded=0;orthogonalLoop=1;jettySize=auto;html=1;exitX=0;exitY=0.5;exitDx=0;exitDy=0;entryX=0.25;entryY=1;entryDx=0;entryDy=0;strokeWidth=2;" parent="1" source="uF8mq2zdlkkt3BdRy5Kg-82" target="uF8mq2zdlkkt3BdRy5Kg-67" edge="1">
          <mxGeometry relative="1" as="geometry" />
        </mxCell>
        <mxCell id="uF8mq2zdlkkt3BdRy5Kg-82" value="+4" style="whiteSpace=wrap;html=1;strokeWidth=2;" parent="1" vertex="1">
          <mxGeometry x="40" y="-70" width="40" height="50" as="geometry" />
        </mxCell>
        <mxCell id="uF8mq2zdlkkt3BdRy5Kg-85" value="" style="endArrow=classic;html=1;rounded=0;entryX=0.5;entryY=1;entryDx=0;entryDy=0;strokeWidth=2;" parent="1" target="uF8mq2zdlkkt3BdRy5Kg-67" edge="1">
          <mxGeometry width="50" height="50" relative="1" as="geometry">
            <mxPoint x="520" y="280" as="sourcePoint" />
            <mxPoint x="570" y="230" as="targetPoint" />
            <Array as="points">
              <mxPoint x="520" y="-90" />
            </Array>
          </mxGeometry>
        </mxCell>
        <mxCell id="uF8mq2zdlkkt3BdRy5Kg-86" value="" style="endArrow=classic;html=1;rounded=0;entryX=0.75;entryY=1;entryDx=0;entryDy=0;strokeWidth=2;" parent="1" target="uF8mq2zdlkkt3BdRy5Kg-67" edge="1">
          <mxGeometry width="50" height="50" relative="1" as="geometry">
            <mxPoint x="105" y="-130.5434782608695" as="sourcePoint" />
            <mxPoint x="220" y="60" as="targetPoint" />
            <Array as="points" />
          </mxGeometry>
        </mxCell>
        <mxCell id="uF8mq2zdlkkt3BdRy5Kg-87" value="" style="endArrow=classic;html=1;rounded=0;strokeWidth=2;" parent="1" edge="1">
          <mxGeometry width="50" height="50" relative="1" as="geometry">
            <mxPoint x="100" y="10" as="sourcePoint" />
            <mxPoint x="100" y="-130" as="targetPoint" />
          </mxGeometry>
        </mxCell>
        <mxCell id="uF8mq2zdlkkt3BdRy5Kg-89" value="" style="endArrow=classic;html=1;rounded=0;entryX=1;entryY=0.5;entryDx=0;entryDy=0;strokeWidth=2;" parent="1" edge="1">
          <mxGeometry width="50" height="50" relative="1" as="geometry">
            <mxPoint x="170" y="110" as="sourcePoint" />
            <mxPoint x="155" y="-130" as="targetPoint" />
            <Array as="points">
              <mxPoint x="170" y="-132" />
            </Array>
          </mxGeometry>
        </mxCell>
        <mxCell id="uF8mq2zdlkkt3BdRy5Kg-91" value="&amp;lt;&amp;lt; 2" style="ellipse;whiteSpace=wrap;html=1;" parent="1" vertex="1">
          <mxGeometry x="105" y="-150" width="50" height="30" as="geometry" />
        </mxCell>
        <mxCell id="uF8mq2zdlkkt3BdRy5Kg-92" value="" style="endArrow=classic;html=1;rounded=0;strokeWidth=2;exitX=0.522;exitY=-0.05;exitDx=0;exitDy=0;exitPerimeter=0;entryX=0.25;entryY=1;entryDx=0;entryDy=0;" parent="1" target="1iNwFmvuLVCoxdjUktjB-1" edge="1" source="uF8mq2zdlkkt3BdRy5Kg-8">
          <mxGeometry width="50" height="50" relative="1" as="geometry">
            <mxPoint x="1370" y="340" as="sourcePoint" />
            <mxPoint x="310" y="680" as="targetPoint" />
            <Array as="points">
              <mxPoint x="1370" y="339" />
              <mxPoint x="1370" y="710" />
              <mxPoint x="730" y="710" />
              <mxPoint x="325" y="710" />
            </Array>
          </mxGeometry>
        </mxCell>
        <mxCell id="uF8mq2zdlkkt3BdRy5Kg-94" value="" style="endArrow=classic;html=1;rounded=0;entryX=0;entryY=0.5;entryDx=0;entryDy=0;strokeWidth=2;fillColor=#e51400;strokeColor=#B20000;" parent="1" target="uF8mq2zdlkkt3BdRy5Kg-5" edge="1">
          <mxGeometry width="50" height="50" relative="1" as="geometry">
            <mxPoint x="500" y="110" as="sourcePoint" />
            <mxPoint x="450" y="100" as="targetPoint" />
          </mxGeometry>
        </mxCell>
        <mxCell id="uF8mq2zdlkkt3BdRy5Kg-97" value="EX" style="text;html=1;align=center;verticalAlign=middle;resizable=0;points=[];autosize=1;strokeColor=none;fillColor=none;fontSize=23;" parent="1" vertex="1">
          <mxGeometry x="676" y="723" width="50" height="40" as="geometry" />
        </mxCell>
        <mxCell id="uF8mq2zdlkkt3BdRy5Kg-98" value="ID" style="text;html=1;align=center;verticalAlign=middle;resizable=0;points=[];autosize=1;strokeColor=none;fillColor=none;fontSize=23;" parent="1" vertex="1">
          <mxGeometry x="306" y="723" width="50" height="40" as="geometry" />
        </mxCell>
        <mxCell id="uF8mq2zdlkkt3BdRy5Kg-99" value="IF" style="text;html=1;align=center;verticalAlign=middle;resizable=0;points=[];autosize=1;strokeColor=none;fillColor=none;fontSize=23;" parent="1" vertex="1">
          <mxGeometry x="-130" y="723" width="40" height="40" as="geometry" />
        </mxCell>
        <mxCell id="uF8mq2zdlkkt3BdRy5Kg-100" value="MEM" style="text;html=1;align=center;verticalAlign=middle;resizable=0;points=[];autosize=1;strokeColor=none;fillColor=none;fontSize=23;" parent="1" vertex="1">
          <mxGeometry x="1061" y="723" width="80" height="40" as="geometry" />
        </mxCell>
        <mxCell id="uF8mq2zdlkkt3BdRy5Kg-101" value="WB" style="text;html=1;align=center;verticalAlign=middle;resizable=0;points=[];autosize=1;strokeColor=none;fillColor=none;fontSize=23;" parent="1" vertex="1">
          <mxGeometry x="1440" y="723" width="60" height="40" as="geometry" />
        </mxCell>
        <mxCell id="1iNwFmvuLVCoxdjUktjB-2" style="edgeStyle=orthogonalEdgeStyle;rounded=0;orthogonalLoop=1;jettySize=auto;html=1;exitX=0.5;exitY=0;exitDx=0;exitDy=0;entryX=1;entryY=0.25;entryDx=0;entryDy=0;" edge="1" parent="1" source="1iNwFmvuLVCoxdjUktjB-1" target="uF8mq2zdlkkt3BdRy5Kg-1">
          <mxGeometry relative="1" as="geometry" />
        </mxCell>
        <mxCell id="1iNwFmvuLVCoxdjUktjB-1" value="" style="shape=trapezoid;perimeter=trapezoidPerimeter;whiteSpace=wrap;html=1;fixedSize=1;rotation=0;fillColor=#647687;fontColor=#ffffff;strokeColor=#314354;strokeWidth=2;" vertex="1" parent="1">
          <mxGeometry x="300" y="640" width="100" height="40" as="geometry" />
        </mxCell>
        <mxCell id="1iNwFmvuLVCoxdjUktjB-4" value="" style="endArrow=classic;html=1;rounded=0;entryX=0.043;entryY=1.05;entryDx=0;entryDy=0;entryPerimeter=0;strokeWidth=2;" edge="1" parent="1" target="uF8mq2zdlkkt3BdRy5Kg-6">
          <mxGeometry width="50" height="50" relative="1" as="geometry">
            <mxPoint x="370" y="10" as="sourcePoint" />
            <mxPoint x="480" y="100" as="targetPoint" />
          </mxGeometry>
        </mxCell>
        <mxCell id="1iNwFmvuLVCoxdjUktjB-5" value="" style="endArrow=classic;html=1;rounded=0;entryX=0.036;entryY=0.95;entryDx=0;entryDy=0;entryPerimeter=0;exitX=0.049;exitY=-0.025;exitDx=0;exitDy=0;exitPerimeter=0;strokeWidth=2;" edge="1" parent="1" source="uF8mq2zdlkkt3BdRy5Kg-6" target="uF8mq2zdlkkt3BdRy5Kg-7">
          <mxGeometry width="50" height="50" relative="1" as="geometry">
            <mxPoint x="620" y="20" as="sourcePoint" />
            <mxPoint x="670" y="-30" as="targetPoint" />
          </mxGeometry>
        </mxCell>
        <mxCell id="1iNwFmvuLVCoxdjUktjB-6" value="" style="endArrow=classic;html=1;rounded=0;exitX=0.037;exitY=0;exitDx=0;exitDy=0;exitPerimeter=0;entryX=0.026;entryY=1.05;entryDx=0;entryDy=0;entryPerimeter=0;strokeWidth=2;" edge="1" parent="1" source="uF8mq2zdlkkt3BdRy5Kg-7" target="uF8mq2zdlkkt3BdRy5Kg-8">
          <mxGeometry width="50" height="50" relative="1" as="geometry">
            <mxPoint x="1020" y="150" as="sourcePoint" />
            <mxPoint x="1070" y="100" as="targetPoint" />
          </mxGeometry>
        </mxCell>
        <mxCell id="1iNwFmvuLVCoxdjUktjB-7" value="" style="endArrow=classic;html=1;rounded=0;entryX=0.75;entryY=1;entryDx=0;entryDy=0;strokeWidth=2;" edge="1" parent="1" target="1iNwFmvuLVCoxdjUktjB-1">
          <mxGeometry width="50" height="50" relative="1" as="geometry">
            <mxPoint x="1350" y="20" as="sourcePoint" />
            <mxPoint x="-436" y="650" as="targetPoint" />
            <Array as="points">
              <mxPoint x="1400" y="20" />
              <mxPoint x="1400" y="700" />
              <mxPoint x="375" y="700" />
            </Array>
          </mxGeometry>
        </mxCell>
        <mxCell id="1iNwFmvuLVCoxdjUktjB-9" style="edgeStyle=orthogonalEdgeStyle;rounded=0;orthogonalLoop=1;jettySize=auto;html=1;exitX=0.5;exitY=0;exitDx=0;exitDy=0;entryX=1;entryY=0.75;entryDx=0;entryDy=0;" edge="1" parent="1" source="1iNwFmvuLVCoxdjUktjB-8" target="uF8mq2zdlkkt3BdRy5Kg-1">
          <mxGeometry relative="1" as="geometry" />
        </mxCell>
        <mxCell id="1iNwFmvuLVCoxdjUktjB-10" style="edgeStyle=orthogonalEdgeStyle;rounded=0;orthogonalLoop=1;jettySize=auto;html=1;exitX=0.25;exitY=1;exitDx=0;exitDy=0;startArrow=classic;startFill=1;endArrow=none;endFill=0;fillColor=#e51400;strokeColor=#B20000;" edge="1" parent="1" source="1iNwFmvuLVCoxdjUktjB-8">
          <mxGeometry relative="1" as="geometry">
            <mxPoint x="215" y="720" as="targetPoint" />
          </mxGeometry>
        </mxCell>
        <mxCell id="1iNwFmvuLVCoxdjUktjB-8" value="" style="shape=trapezoid;perimeter=trapezoidPerimeter;whiteSpace=wrap;html=1;fixedSize=1;rotation=0;fillColor=#647687;fontColor=#ffffff;strokeColor=#314354;strokeWidth=2;" vertex="1" parent="1">
          <mxGeometry x="190" y="640" width="100" height="40" as="geometry" />
        </mxCell>
        <mxCell id="1iNwFmvuLVCoxdjUktjB-11" value="31" style="text;html=1;align=center;verticalAlign=middle;resizable=0;points=[];autosize=1;strokeColor=none;fillColor=none;" vertex="1" parent="1">
          <mxGeometry x="191" y="718" width="40" height="30" as="geometry" />
        </mxCell>
        <mxCell id="1iNwFmvuLVCoxdjUktjB-13" value="" style="endArrow=classic;html=1;rounded=0;entryX=0.168;entryY=1.025;entryDx=0;entryDy=0;entryPerimeter=0;strokeWidth=2;fillColor=#e51400;strokeColor=#B20000;" edge="1" parent="1" target="uF8mq2zdlkkt3BdRy5Kg-8">
          <mxGeometry width="50" height="50" relative="1" as="geometry">
            <mxPoint x="1260" y="109" as="sourcePoint" />
            <mxPoint x="1230" y="140" as="targetPoint" />
          </mxGeometry>
        </mxCell>
        <mxCell id="1iNwFmvuLVCoxdjUktjB-14" value="" style="endArrow=classic;html=1;rounded=0;exitX=0.175;exitY=0;exitDx=0;exitDy=0;exitPerimeter=0;entryX=0.75;entryY=1;entryDx=0;entryDy=0;fillColor=#e51400;strokeColor=#B20000;strokeWidth=2;" edge="1" parent="1" source="uF8mq2zdlkkt3BdRy5Kg-8" target="1iNwFmvuLVCoxdjUktjB-8">
          <mxGeometry width="50" height="50" relative="1" as="geometry">
            <mxPoint x="1390" y="180" as="sourcePoint" />
            <mxPoint x="1440" y="130" as="targetPoint" />
            <Array as="points">
              <mxPoint x="1440" y="114" />
              <mxPoint x="1440" y="780" />
              <mxPoint x="265" y="770" />
            </Array>
          </mxGeometry>
        </mxCell>
      </root>
    </mxGraphModel>
  </diagram>
</mxfile>
